HIERARCHY
ROOT Hips
{
	OFFSET 0.000000 0.000000 0.000000
	CHANNELS 6 Xposition Yposition Zposition Xrotation Yrotation Zrotation
	JOINT LeftUpLeg_virtual
	{
		OFFSET 0.000000 0.000000 0.000000
		CHANNELS 3 Xrotation Yrotation Zrotation
		JOINT LeftUpLeg
		{
			OFFSET 13.026900 -6.336304 -1.092800
			CHANNELS 3 Xrotation Yrotation Zrotation
			JOINT LeftLeg
			{
				OFFSET 0.524474 -46.096886 9.782700
				CHANNELS 3 Xrotation Yrotation Zrotation
				JOINT LeftFoot
				{
					OFFSET -0.524474 -53.427422 -12.948200
					CHANNELS 3 Xrotation Yrotation Zrotation
					JOINT LeftToeBase
					{
						OFFSET 0.192200 -14.009700 16.364100
						CHANNELS 3 Xrotation Yrotation Zrotation
						JOINT LeftToe_End
						{
							OFFSET -1.784700 -0.561700 9.474800
							CHANNELS 3 Xrotation Yrotation Zrotation
							End Site
							{
								OFFSET 0 0 0
							}
						}
					}
				}
			}
		}
	}
	JOINT RightUpLeg_virtual
	{
		OFFSET 0.000000 0.000000 0.000000
		CHANNELS 3 Xrotation Yrotation Zrotation
		JOINT RightUpLeg
		{
			OFFSET -12.883000 -6.336304 -1.092800
			CHANNELS 3 Xrotation Yrotation Zrotation
			JOINT RightLeg
			{
				OFFSET -0.524587 -46.096825 9.782800
				CHANNELS 3 Xrotation Yrotation Zrotation
				JOINT RightFoot
				{
					OFFSET 0.524587 -53.427383 -12.948300
					CHANNELS 3 Xrotation Yrotation Zrotation
					JOINT RightToeBase
					{
						OFFSET -0.192200 -14.009700 16.364100
						CHANNELS 3 Xrotation Yrotation Zrotation
						JOINT RightToe_End
						{
							OFFSET 1.784700 -0.561700 9.474800
							CHANNELS 3 Xrotation Yrotation Zrotation
							End Site
							{
								OFFSET 0 0 0
							}
						}
					}
				}
			}
		}
	}
	JOINT Spine_virtual
	{
		OFFSET 0.000000 0.000000 0.000000
		CHANNELS 3 Xrotation Yrotation Zrotation
		JOINT Spine
		{
			OFFSET 0.072000 7.257294 -0.789700
			CHANNELS 3 Xrotation Yrotation Zrotation
			JOINT Spine1
			{
				OFFSET 0.000000 12.508769 -0.658067
				CHANNELS 3 Xrotation Yrotation Zrotation
				JOINT Spine1_split
				{
					OFFSET 0.000000 12.508769 -0.658067
					CHANNELS 3 Xrotation Yrotation Zrotation
					JOINT Spine2
					{
						OFFSET 0.000000 12.508769 -0.658067
						CHANNELS 3 Xrotation Yrotation Zrotation
						JOINT Neck_virtual
						{
							OFFSET 0.000000 0.000000 0.000000
							CHANNELS 3 Xrotation Yrotation Zrotation
							JOINT Neck
							{
								OFFSET 0.000000 14.033295 7.520400
								CHANNELS 3 Xrotation Yrotation Zrotation
								JOINT Head
								{
									OFFSET 0.000000 8.198502 5.703100
									CHANNELS 3 Xrotation Yrotation Zrotation
									JOINT HeadTop_End
									{
										OFFSET 0.000000 17.760803 13.332701
										CHANNELS 3 Xrotation Yrotation Zrotation
										End Site
										{
											OFFSET 0 0 0
										}
									}
								}
							}
						}
						JOINT LeftShoulder_virtual
						{
							OFFSET 0.000000 0.000000 0.000000
							CHANNELS 3 Xrotation Yrotation Zrotation
							JOINT LeftShoulder
							{
								OFFSET 6.292450 5.785301 -0.669000
								CHANNELS 3 Xrotation Yrotation Zrotation
								JOINT LeftShoulder_split
								{
									OFFSET 6.292450 5.785301 -0.669000
									CHANNELS 3 Xrotation Yrotation Zrotation
									JOINT LeftArm
									{
										OFFSET 13.907140 -6.093903 1.965100
										CHANNELS 3 Xrotation Yrotation Zrotation
										JOINT LeftForeArm
										{
											OFFSET 34.140198 0.000000 0.000000
											CHANNELS 3 Xrotation Yrotation Zrotation
											JOINT LeftHand
											{
												OFFSET 40.960209 0.000000 0.000000
												CHANNELS 3 Xrotation Yrotation Zrotation
												End Site
												{
													OFFSET 0 0 0
												}
											}
										}
									}
								}
							}
						}
						JOINT RightShoulder_virtual
						{
							OFFSET 0.000000 0.000000 0.000000
							CHANNELS 3 Xrotation Yrotation Zrotation
							JOINT RightShoulder
							{
								OFFSET -6.292450 5.785301 -0.669000
								CHANNELS 3 Xrotation Yrotation Zrotation
								JOINT RightShoulder_split
								{
									OFFSET -6.292450 5.785301 -0.669000
									CHANNELS 3 Xrotation Yrotation Zrotation
									JOINT RightArm
									{
										OFFSET -13.907140 -6.093903 1.965100
										CHANNELS 3 Xrotation Yrotation Zrotation
										JOINT RightForeArm
										{
											OFFSET -34.140198 0.000000 0.000000
											CHANNELS 3 Xrotation Yrotation Zrotation
											JOINT RightHand
											{
												OFFSET -40.960209 0.000000 0.000000
												CHANNELS 3 Xrotation Yrotation Zrotation
												End Site
												{
													OFFSET 0 0 0
												}
											}
										}
									}
								}
							}
						}
					}
				}
			}
		}
	}
}
MOTION
Frames: 4
Frame Time: 0.03333333
0.161960 100.983200 -1.131912 0.000000 0.000000 0.000000 -5.365208 -62.804819 -4.111588 -32.950202 10.689615 29.125330 40.798363 -6.829238 -8.203043 -6.806088 -3.228449 -6.317330 -0.823308 0.918163 0.487529 0.000000 0.000000 0.000000 -6.125228 -61.045226 -4.202691 -25.837917 -11.160783 -20.554358 39.427936 3.861528 -7.796200 -12.751878 3.962346 18.949400 1.196639 -0.605436 -0.525633 0.000000 0.000000 0.000000 -5.536839 -60.664183 -4.001513 10.576083 2.297678 -0.913952 7.483766 0.395328 -5.107691 0.472966 -1.695492 1.113562 0.000000 0.000000 0.000000 7.893120 0.764495 -4.950119 -25.415766 23.233609 11.281501 -3.517367 26.341400 -3.106826 0.000000 0.000000 0.000000 9.017078 0.448705 -4.645011 -5.708252 -10.082569 -1.660078 -2.276342 -1.433450 -2.361687 -17.998228 3.489231 -34.999908 4.888661 -49.561369 2.811359 0.000000 0.000000 0.000000 8.471396 0.450688 -4.936445 -4.122441 11.639432 1.926601 1.803297 1.006531 0.956937 -38.809664 -25.178809 32.490913 -157.308450 64.967175 157.853636 0.000000 0.000000 0.000000 
0.088392 100.885612 -1.221809 0.000000 0.000000 0.000000 -4.981015 -62.708213 -3.390021 -32.702509 10.331686 28.514638 40.412276 -6.480027 -8.241846 -6.683089 -2.981508 -6.478632 -0.588564 0.915483 0.437536 0.000000 0.000000 0.000000 -5.797335 -61.203590 -3.509060 -26.328366 -10.848128 -21.233393 39.541550 4.057856 -7.786945 -12.893292 4.365748 19.114542 1.139575 -0.561387 -0.507534 0.000000 0.000000 0.000000 -4.701804 -60.448206 -3.059943 10.426106 2.369887 -0.687467 7.966118 0.498261 -4.988124 0.432271 -1.646583 1.177171 0.000000 0.000000 0.000000 8.226056 0.898465 -4.885204 -23.435303 23.321003 11.662425 -2.742995 25.793016 -2.901889 0.000000 0.000000 0.000000 9.400926 0.496691 -4.549043 -5.841151 -10.680015 -2.412979 -2.130028 -1.207625 -2.349715 -16.496399 4.808788 -34.971053 5.258250 -49.919845 2.855469 0.000000 0.000000 0.000000 8.827533 0.569753 -4.746608 -4.193048 11.742473 2.587235 1.400099 0.842297 0.848669 -39.486092 -24.689023 31.117334 -157.512591 64.179879 158.317529 0.000000 0.000000 0.000000 
-0.010847 101.024109 -1.255970 0.000000 0.000000 0.000000 -4.271004 -62.676507 -2.338840 -32.363537 9.970709 27.714456 39.729684 -6.163837 -8.154787 -6.423572 -2.812909 -6.828345 -0.363600 0.912078 0.403739 0.000000 0.000000 0.000000 -5.279587 -61.294691 -2.594796 -26.714933 -10.720762 -21.839374 39.402876 4.081957 -7.680237 -12.864804 4.608985 19.243855 0.983177 -0.537615 -0.505312 0.000000 0.000000 0.000000 -3.787516 -60.183099 -2.014761 10.312699 2.380982 -0.608991 8.380661 0.561002 -4.867337 0.457523 -1.885890 1.218859 0.000000 0.000000 0.000000 8.583903 0.987874 -4.787314 -21.983199 23.436513 11.727949 -2.108107 25.042148 -2.901395 0.000000 0.000000 0.000000 9.747723 0.505733 -4.409408 -5.956511 -11.141845 -2.955310 -2.146783 -0.789427 -2.373739 -15.248010 5.572711 -35.050526 5.741949 -49.065634 3.027240 0.000000 0.000000 0.000000 9.074069 0.638843 -4.549031 -4.254971 11.428818 3.124567 0.878526 0.682718 0.946455 -39.998052 -23.468870 30.439175 -157.029874 64.230006 157.972864 0.000000 0.000000 0.000000 
-0.101443 101.256386 -1.240662 0.000000 0.000000 0.000000 -3.530048 -62.626728 -1.274564 -32.079770 9.605298 26.871474 39.118529 -5.944427 -7.946978 -6.170124 -2.742469 -7.329891 -0.286654 0.909535 0.414004 0.000000 0.000000 0.000000 -4.717692 -61.329129 -1.662215 -27.017691 -10.665728 -22.274630 39.298081 3.915748 -7.530541 -12.851892 4.637156 19.300043 0.816128 -0.535646 -0.519494 0.000000 0.000000 0.000000 -3.069634 -59.872605 -1.128842 10.293436 2.320796 -0.675211 8.721951 0.550617 -4.782231 0.564998 -2.254820 1.170729 0.000000 0.000000 0.000000 8.964322 1.000806 -4.714543 -21.156342 23.579650 11.578566 -1.561037 24.348392 -3.123597 0.000000 0.000000 0.000000 10.069686 0.444912 -4.281562 -6.033167 -11.464222 -3.268380 -2.234279 -0.305106 -2.526008 -14.539613 5.778951 -34.966146 6.038099 -47.318632 3.132726 0.000000 0.000000 0.000000 9.263434 0.617857 -4.402486 -4.296017 10.846798 3.461693 0.462818 0.561770 1.138718 -40.451242 -22.094964 30.463562 -156.729441 64.478372 157.684548 0.000000 0.000000 0.000000 
